#N canvas 467 506 403 217 10;
#X obj 20 20 cnv 10 240 64 empty empty empty 10 15 0 12 -2049 -1 0
;
#X obj 22 22 cnv 20 236 60 empty empty control 10 15 0 12 -13381 -4033
0;
#X obj 32 54 bng 20 250 50 0 reinit empty REINIT 27 10 0 10 -1 -204786
-204786;
#N canvas 582 366 403 260 init 0;
#X obj 19 165 delay 1000;
#X obj 19 51 t b b b;
#X obj 19 15 r reinit;
#X msg 19 196 \; pd dsp 1 \;;
#N canvas 305 368 595 334 initbanks 0;
#X obj 195 142 + 1;
#X obj 141 170 f;
#X msg 177 116 1;
#X obj 159 143 f;
#N canvas 128 382 450 300 file 0;
#X obj 77 180 textfile;
#X msg 100 117 rewind;
#X obj 77 45 t b b b;
#X msg 162 117 read banks.txt cr;
#X obj 77 16 inlet;
#X obj 19 16 inlet;
#X obj 77 245 outlet;
#X obj 130 246 outlet;
#X connect 0 0 6 0;
#X connect 0 1 7 0;
#X connect 1 0 0 0;
#X connect 2 0 0 0;
#X connect 2 1 1 0;
#X connect 2 2 3 0;
#X connect 3 0 0 0;
#X connect 4 0 2 0;
#X connect 5 0 0 0;
#X restore 54 83 pd file;
#N canvas 616 595 405 269 label 0;
#X obj 24 86 * 20;
#X obj 54 17 inlet;
#X obj 24 209 outlet;
#X obj 100 75 outlet;
#X obj 54 48 t f f b;
#X obj 24 140 pack f f;
#X msg 24 168 obj 58 \$1 bank-item \$2 \$2;
#X obj 24 111 + 65;
#X connect 0 0 7 0;
#X connect 1 0 4 0;
#X connect 4 0 0 0;
#X connect 4 1 5 1;
#X connect 4 2 3 0;
#X connect 5 0 6 0;
#X connect 6 0 2 0;
#X connect 7 0 5 0;
#X restore 54 126 pd label;
#X msg 9 105 bang;
#X msg 128 116 clear;
#X obj 54 294 s pd-bank-selector;
#X msg 141 200 obj 20 20 cnv 15 154 244 empty empty empty 15 15 0 14
-2049 -66577 0 \, obj 22 22 cnv 15 150 240 empty empty BANKS 15 20
0 14 -13381 -4033 0 \, obj 37 65 vradio 20 1 0 \$1 loadbank bankselector
empty 0 -8 0 10 -833 -4033 -4033 -4033;
#X obj 100 34 t b b b b;
#X obj 100 12 inlet;
#X connect 0 0 3 1;
#X connect 1 0 9 0;
#X connect 2 0 3 1;
#X connect 3 0 0 0;
#X connect 3 0 1 1;
#X connect 4 0 5 0;
#X connect 4 1 1 0;
#X connect 5 0 6 0;
#X connect 5 0 8 0;
#X connect 5 1 3 0;
#X connect 6 0 4 0;
#X connect 7 0 8 0;
#X connect 9 0 8 0;
#X connect 10 0 4 1;
#X connect 10 1 7 0;
#X connect 10 1 2 0;
#X connect 11 0 10 0;
#X restore 42 126 pd initbanks;
#X msg 65 79 \; load 0 \;;
#X connect 0 0 3 0;
#X connect 1 0 0 0;
#X connect 1 1 4 0;
#X connect 1 2 5 0;
#X connect 2 0 1 0;
#X restore 20 100 pd init;
#N canvas 327 203 640 479 state 0;
#X obj 219 310 textfile;
#X msg 136 145 clear;
#X obj 199 116 r file;
#X msg 199 145 add \$1 \$2 \$3 \$4 \$5;
#X obj 97 117 t b b b;
#X obj 70 183 s savesample;
#X obj 97 90 r save;
#X msg 266 237 rewind;
#X obj 225 215 until;
#X obj 343 159 t b b b;
#X msg 219 338 \; \$1-rsample symbol \$2 \; \$1-rattack \$3 \; \$1-rrelease
\$4 \; \$1-rvolume \$5 \;;
#X obj 434 19 r loadbank;
#X obj 389 215 value bank;
#X obj 436 175 s selectbank;
#N canvas 151 277 450 300 clean-keys 0;
#X obj 151 78 s unselect;
#X obj 105 140 f;
#X msg 128 111 1;
#X obj 140 140 + 1;
#X obj 105 166 moses 9;
#X msg 23 147 bang \; \$1-play 0 \;;
#X obj 105 45 t b b b;
#X obj 105 18 inlet;
#X connect 1 0 3 0;
#X connect 1 0 4 0;
#X connect 2 0 1 1;
#X connect 3 0 1 1;
#X connect 4 0 5 0;
#X connect 5 0 1 0;
#X connect 6 0 1 0;
#X connect 6 1 2 0;
#X connect 6 2 0 0;
#X connect 7 0 6 0;
#X restore 457 141 pd clean-keys;
#X obj 18 226 value bank;
#X obj 482 65 s save;
#X obj 376 20 r load;
#X msg 18 251 write banks/\$1/.conf.txt;
#X obj 297 91 s 1-select;
#X obj 497 42 r unselect;
#X obj 434 40 t f b b;
#X obj 390 64 t b b f;
#X msg 307 261 read banks/\$1/.conf.txt;
#X connect 0 0 10 0;
#X connect 0 1 8 1;
#X connect 1 0 0 0;
#X connect 2 0 3 0;
#X connect 3 0 0 0;
#X connect 4 0 15 0;
#X connect 4 1 5 0;
#X connect 4 2 1 0;
#X connect 6 0 4 0;
#X connect 7 0 0 0;
#X connect 8 0 0 0;
#X connect 9 0 8 0;
#X connect 9 1 7 0;
#X connect 9 2 12 0;
#X connect 11 0 21 0;
#X connect 12 0 23 0;
#X connect 15 0 18 0;
#X connect 17 0 22 0;
#X connect 18 0 0 0;
#X connect 20 0 16 0;
#X connect 21 0 22 0;
#X connect 21 1 14 0;
#X connect 21 2 16 0;
#X connect 22 0 19 0;
#X connect 22 1 9 0;
#X connect 22 2 12 0;
#X connect 22 2 13 0;
#X connect 23 0 0 0;
#X restore 82 100 pd state;
#N canvas 334 278 536 395 manage-samsel 0;
#X obj 169 165 textfile;
#X obj 169 136 until;
#X obj 41 335 s pd-sample-selector;
#X obj 202 215 float;
#X msg 271 120 read banks/\$1/samples.txt cr \, rewind;
#X obj 238 19 r samsel;
#X obj 238 44 t b b f;
#X obj 271 94 value bank;
#X obj 169 188 t a b;
#X obj 169 266 pack s f f;
#N canvas 99 89 450 300 init-samsel 0;
#X obj 14 12 inlet;
#X obj 14 221 outlet;
#X msg 14 50 clear \, obj 15 20 cnv 15 240 240 empty empty empty 15
15 0 14 -2049 -66577 0 \, obj 17 22 cnv 20 236 236 empty empty SAMPLES
15 20 0 14 -13381 -4033 0;
#X connect 0 0 2 0;
#X connect 2 0 1 0;
#X restore 41 111 pd init-samsel;
#X msg 169 296 obj 32 \$2 sample-item \$3 \$1;
#X msg 234 95 65;
#X obj 247 215 + 20;
#X connect 0 0 8 0;
#X connect 0 1 1 1;
#X connect 1 0 0 0;
#X connect 3 0 9 1;
#X connect 3 0 13 0;
#X connect 4 0 0 0;
#X connect 5 0 6 0;
#X connect 6 0 1 0;
#X connect 6 1 12 0;
#X connect 6 1 7 0;
#X connect 6 1 10 0;
#X connect 6 2 9 2;
#X connect 7 0 4 0;
#X connect 8 0 9 0;
#X connect 8 1 3 0;
#X connect 9 0 11 0;
#X connect 10 0 2 0;
#X connect 11 0 2 0;
#X connect 12 0 3 1;
#X connect 13 0 3 1;
#X restore 20 134 pd manage-samsel;
#N canvas 170 388 420 278 command 0;
#X obj 10 233 s 1-play;
#X obj 35 210 s 2-play;
#X obj 60 187 s 3-play;
#X obj 85 165 s 4-play;
#X obj 110 142 s 5-play;
#X obj 135 120 s 6-play;
#X obj 160 98 s 7-play;
#X obj 185 76 s 8-play;
#X obj 10 29 pack f f;
#X obj 10 6 notein 1;
#X obj 10 52 route 28 29 30 31 32 33 34 35;
#X connect 8 0 10 0;
#X connect 9 0 8 0;
#X connect 9 1 8 1;
#X connect 10 0 0 0;
#X connect 10 1 1 0;
#X connect 10 2 2 0;
#X connect 10 3 3 0;
#X connect 10 4 4 0;
#X connect 10 5 5 0;
#X connect 10 6 6 0;
#X connect 10 7 7 0;
#X restore 151 100 pd command;
#X obj 159 55 bng 20 250 50 0 exit empty SAVE_&_EXIT 27 10 0 10 -1
-262144 -262144;
#N canvas 521 413 450 300 exit 0;
#X obj 17 13 r exit;
#X obj 77 74 s save;
#X obj 17 47 t b b b b;
#X msg 17 196 \; pd quit \;;
#X msg 57 153 \; pd-orgasample-stereo.pd menusave \;;
#X msg 57 100 \; pd-keys.pd menusave \; pd-controls.pd menusave \;
;
#X connect 0 0 2 0;
#X connect 2 0 3 0;
#X connect 2 2 5 0;
#X connect 2 3 1 0;
#X connect 5 0 4 0;
#X restore 234 100 pd exit;
#N canvas 206 219 450 300 doc 0;
#X obj 10 10 cnv 15 160 160 empty empty COULEURS 10 10 0 12 -233017
-13381 0;
#X text 15 33 -4033 vert flashy;
#X text 15 50 -2049 cadre element;
#X text 15 67 -13381 fond element;
#X text 15 84 -833 fond item;
#X text 15 101 -221145 view;
#X text 15 135 -241291 selected key;
#X text 15 118 -241291 played key;
#X restore 234 134 pd doc;
#X coords 0 -1 1 1 240 64 2 20 20;
