#N canvas 509 105 606 506 10;
#X obj 1 1 cnv 10 604 504 empty empty empty 20 12 0 14 -221145 -66577
0;
#X obj 3 3 cnv 20 600 500 empty empty ORGASAMPLE 36 54 0 24 -1 -4033
0;
#N canvas 254 483 423 342 bank-selector 0;
#X obj 20 20 cnv 15 160 240 empty empty empty 15 15 0 14 -2049 -66577
0;
#X obj 22 22 cnv 15 156 236 empty empty BANKS 15 20 0 14 -13381 -4033
0;
#X obj 37 65 vradio 20 1 0 4 loadbank bankselector empty 0 -8 0 10
-833 -4033 -4033 -4033;
#X obj 58 125 bank-item 3 3;
#X obj 58 105 bank-item 2 2;
#X obj 58 85 bank-item 1 1;
#X obj 58 65 bank-item 0 0;
#X coords 0 -1 1 1 160 240 2 20 20;
#X restore 29 241 pd bank-selector;
#N canvas 598 206 402 432 sample-selector 0;
#X obj 15 20 cnv 15 360 240 empty empty empty 15 15 0 14 -2049 -66577
0;
#X obj 17 22 cnv 20 356 236 empty empty SAMPLES 15 20 0 14 -13381 -4033
0;
#X obj 32 65 sample-item 1 Airplanes-mono.wav;
#X obj 32 85 sample-item 1 ArtilleryDistant-mono.wav;
#X obj 32 105 sample-item 1 BigBen-mono.wav;
#X obj 32 125 sample-item 1 CornerPreacher-mono.wav;
#X obj 32 145 sample-item 1 Dogs-mono.wav;
#X obj 32 165 sample-item 1 FourJet-mono.wav;
#X obj 32 185 sample-item 1 NappeDecadesCivileDefence-mono.wav;
#X obj 32 205 sample-item 1 RainBellDripping-mono.wav;
#X coords 0 -1 1 1 360 240 2 15 20;
#X restore 218 241 pd sample-selector;
#N canvas 3 145 449 354 keys 0;
#X obj 21 137 samplekey-stereo 1;
#X obj 21 91 bng 30 250 50 0 1-select empty empty 17 7 0 10 -262144
-1 -1;
#X obj 72 61 bng 30 250 50 0 3-select empty empty 17 7 0 10 -262144
-1 -1;
#X obj 106 61 bng 30 250 50 0 5-select empty empty 17 7 0 10 -262144
-1 -1;
#X obj 55 91 bng 30 250 50 0 2-select empty empty 17 7 0 10 -262144
-1 -1;
#X obj 89 91 bng 30 250 50 0 4-select empty empty 17 7 0 10 -262144
-1 -1;
#X obj 140 61 bng 30 250 50 0 7-select empty empty 17 7 0 10 -262144
-1 -1;
#X obj 123 91 bng 30 250 50 0 6-select empty empty 17 7 0 10 -262144
-1 -1;
#X obj 157 91 bng 30 250 50 0 8-select empty empty 17 7 0 10 -262144
-1 -1;
#X obj 55 21 cnv 15 30 100 empty key-2 empty 20 12 0 14 -262134 -262134
0;
#X obj 89 21 cnv 15 30 100 empty key-4 empty 20 12 0 14 -262134 -262134
0;
#X obj 123 21 cnv 15 30 100 empty key-6 empty 20 12 0 14 -262134 -262134
0;
#X obj 157 21 cnv 15 30 100 empty key-8 empty 20 12 0 14 -262134 -262134
0;
#X obj 72 21 cnv 15 30 70 empty key-3 empty 20 12 0 14 -1 -1 0;
#X obj 106 21 cnv 15 30 70 empty key-5 empty 20 12 0 14 -1 -1 0;
#X obj 140 21 cnv 15 30 70 empty key-7 empty 20 12 0 14 -1 -1 0;
#X obj 21 21 cnv 15 30 100 empty key-1 empty 20 12 0 14 -2049 -2049
0;
#X obj 21 162 samplekey-stereo 2;
#X obj 20 311 samplekey-stereo 8;
#X obj 21 236 samplekey-stereo 5;
#X obj 21 186 samplekey-stereo 3;
#X obj 21 211 samplekey-stereo 4;
#X obj 20 286 samplekey-stereo 7;
#X obj 20 261 samplekey-stereo 6;
#X coords 0 -1 1 1 168 102 2 20 20;
#X restore 26 114 pd keys;
#N canvas 680 749 663 322 key-panel 0;
#X obj 20 20 cnv 10 360 120 empty empty empty 15 15 0 14 -2049 -66577
0;
#X obj 22 22 cnv 20 356 116 empty sample-title NappeDecadesCivileDefence-mono.wav
15 15 0 12 -13381 -4033 0;
#X obj 26 161 r panel-sample;
#X obj 39 107 nbx 5 20 1 10000 0 0 1-rattack panel-attack ATTACK 0
-8 0 12 -262130 -13381 -262144 10 256;
#X obj 207 107 hsl 150 20 0 1 0 0 1-rvolume panel-volume VOLUME -2
-8 0 12 -262130 -13381 -262144 7400 0;
#X obj 121 107 nbx 5 20 1 10000 0 0 1-rrelease panel-release RELEASE
0 -8 0 12 -262130 -13381 -262144 10 256;
#X obj 462 105 s panel-attack;
#X obj 450 156 s panel-release;
#X obj 438 208 s panel-volume;
#X obj 438 184 value volume;
#X obj 462 81 value attack;
#X obj 450 132 value release;
#X obj 406 27 r panelize;
#X obj 406 47 t f b;
#X obj 320 168 r unselect;
#X msg 406 234 \; panel-attack send \$1-rattack \; panel-release send
\$1-rrelease \; panel-volume send \$1-rvolume \;;
#X obj 309 28 bng 20 250 50 0 empty loaded LOADED 27 10 0 10 -1 -4033
-4033;
#X obj 26 208 s sample-title;
#X msg 26 186 label \$1;
#X msg 320 191 symbol none;
#X connect 2 0 18 0;
#X connect 9 0 8 0;
#X connect 10 0 6 0;
#X connect 11 0 7 0;
#X connect 12 0 13 0;
#X connect 13 0 15 0;
#X connect 13 1 10 0;
#X connect 13 1 11 0;
#X connect 13 1 9 0;
#X connect 14 0 19 0;
#X connect 18 0 17 0;
#X connect 19 0 15 0;
#X coords 0 -1 1 1 360 120 2 20 20;
#X restore 218 104 pd key-panel;
#N canvas 70 732 443 241 controls 0;
#X obj 20 20 cnv 10 360 64 empty empty empty 10 15 0 12 -2049 -1 0
;
#X obj 22 22 cnv 20 356 60 empty empty control 10 15 0 12 -13381 -4033
0;
#X obj 133 55 bng 20 250 50 0 reinit empty REINIT 27 10 0 10 -1 -204786
-204786;
#N canvas 1190 761 267 256 init 0;
#X obj 19 172 delay 1000;
#X obj 19 15 r reinit;
#X msg 19 196 \; pd dsp 1 \;;
#N canvas 757 528 595 334 initbanks 0;
#X obj 195 142 + 1;
#X obj 141 170 f;
#X msg 177 116 1;
#X obj 159 143 f;
#N canvas 126 552 450 300 file 0;
#X obj 77 180 textfile;
#X msg 100 117 rewind;
#X obj 77 45 t b b b;
#X obj 77 16 inlet;
#X obj 19 16 inlet;
#X obj 77 245 outlet;
#X obj 130 246 outlet;
#X msg 162 117 read .banks cr;
#X connect 0 0 5 0;
#X connect 0 1 6 0;
#X connect 1 0 0 0;
#X connect 2 0 0 0;
#X connect 2 1 1 0;
#X connect 2 2 7 0;
#X connect 3 0 2 0;
#X connect 4 0 0 0;
#X connect 7 0 0 0;
#X restore 54 83 pd file;
#N canvas 616 605 405 269 label 0;
#X obj 24 86 * 20;
#X obj 54 17 inlet;
#X obj 24 209 outlet;
#X obj 100 75 outlet;
#X obj 54 48 t f f b;
#X obj 24 140 pack f f;
#X msg 24 168 obj 58 \$1 bank-item \$2 \$2;
#X obj 24 111 + 65;
#X connect 0 0 7 0;
#X connect 1 0 4 0;
#X connect 4 0 0 0;
#X connect 4 1 5 1;
#X connect 4 2 3 0;
#X connect 5 0 6 0;
#X connect 6 0 2 0;
#X connect 7 0 5 0;
#X restore 54 126 pd label;
#X msg 9 105 bang;
#X msg 82 222 clear;
#X obj 54 294 s pd-bank-selector;
#X obj 100 12 inlet;
#X obj 100 34 t b b;
#X msg 141 200 clear \, obj 20 20 cnv 15 160 240 empty empty empty
15 15 0 14 -2049 -66577 0 \, obj 22 22 cnv 15 156 236 empty empty BANKS
15 20 0 14 -13381 -4033 0 \, obj 37 65 vradio 20 1 0 \$1 loadbank bankselector
empty 0 -8 0 10 -833 -4033 -4033 -4033;
#X connect 0 0 3 1;
#X connect 1 0 11 0;
#X connect 2 0 3 1;
#X connect 3 0 0 0;
#X connect 3 0 1 1;
#X connect 4 0 5 0;
#X connect 4 1 1 0;
#X connect 5 0 6 0;
#X connect 5 0 8 0;
#X connect 5 1 3 0;
#X connect 6 0 4 0;
#X connect 7 0 8 0;
#X connect 9 0 10 0;
#X connect 10 0 4 1;
#X connect 10 1 2 0;
#X connect 11 0 8 0;
#X restore 39 147 pd initbanks;
#X msg 59 110 \; load 0 \;;
#X obj 19 51 t b b b b;
#X obj 79 79 s loadconf;
#X connect 0 0 2 0;
#X connect 1 0 5 0;
#X connect 5 0 0 0;
#X connect 5 1 3 0;
#X connect 5 2 4 0;
#X connect 5 3 6 0;
#X restore 20 100 pd init;
#N canvas 574 548 640 479 state 0;
#X obj 219 310 textfile;
#X msg 136 145 clear;
#X obj 199 116 r file;
#X msg 199 145 add \$1 \$2 \$3 \$4 \$5;
#X obj 18 107 t b b b;
#X obj 41 197 s savesample;
#X obj 18 80 r save;
#X msg 266 237 rewind;
#X obj 225 215 until;
#X obj 343 159 t b b b;
#X msg 219 338 \; \$1-rsample symbol \$2 \; \$1-rattack \$3 \; \$1-rrelease
\$4 \; \$1-rvolume \$5 \;;
#X obj 434 19 r loadbank;
#X obj 389 215 value bank;
#X obj 436 175 s selectbank;
#N canvas 151 277 450 300 clean-keys 0;
#X obj 151 78 s unselect;
#X obj 105 140 f;
#X msg 128 111 1;
#X obj 140 140 + 1;
#X obj 105 166 moses 9;
#X msg 23 147 bang \; \$1-play 0 \;;
#X obj 105 45 t b b b;
#X obj 105 18 inlet;
#X connect 1 0 3 0;
#X connect 1 0 4 0;
#X connect 2 0 1 1;
#X connect 3 0 1 1;
#X connect 4 0 5 0;
#X connect 5 0 1 0;
#X connect 6 0 1 0;
#X connect 6 1 2 0;
#X connect 6 2 0 0;
#X connect 7 0 6 0;
#X restore 457 141 pd clean-keys;
#X obj 18 226 value bank;
#X obj 482 65 s save;
#X obj 376 20 r load;
#X obj 297 91 s 1-select;
#X obj 497 42 r unselect;
#X obj 434 40 t f b b;
#X obj 390 64 t b b f;
#X msg 307 261 read banks/\$1/.\$1.conf;
#X msg 18 250 write banks/\$1/.\$1.conf;
#X obj 18 289 print saving;
#X connect 0 0 10 0;
#X connect 0 1 8 1;
#X connect 1 0 0 0;
#X connect 2 0 3 0;
#X connect 3 0 0 0;
#X connect 4 0 15 0;
#X connect 4 1 5 0;
#X connect 4 2 1 0;
#X connect 6 0 4 0;
#X connect 7 0 0 0;
#X connect 8 0 0 0;
#X connect 9 0 8 0;
#X connect 9 1 7 0;
#X connect 9 2 12 0;
#X connect 11 0 20 0;
#X connect 12 0 22 0;
#X connect 15 0 23 0;
#X connect 17 0 21 0;
#X connect 19 0 16 0;
#X connect 20 0 21 0;
#X connect 20 1 14 0;
#X connect 20 2 16 0;
#X connect 21 0 18 0;
#X connect 21 1 9 0;
#X connect 21 2 12 0;
#X connect 21 2 13 0;
#X connect 22 0 0 0;
#X connect 23 0 0 0;
#X connect 23 0 24 0;
#X restore 82 100 pd state;
#N canvas 98 398 554 406 manage-samsel 0;
#X obj 169 165 textfile;
#X obj 169 136 until;
#X obj 41 335 s pd-sample-selector;
#X obj 202 215 float;
#X obj 238 19 r samsel;
#X obj 238 44 t b b f;
#X obj 271 94 value bank;
#X obj 169 188 t a b;
#X obj 169 266 pack s f f;
#N canvas 99 110 450 300 init-samsel 0;
#X obj 14 12 inlet;
#X obj 14 221 outlet;
#X msg 14 50 clear \, obj 15 20 cnv 15 360 240 empty empty empty 15
15 0 14 -2049 -66577 0 \, obj 17 22 cnv 20 356 236 empty empty SAMPLES
15 20 0 14 -13381 -4033 0;
#X connect 0 0 2 0;
#X connect 2 0 1 0;
#X restore 41 111 pd init-samsel;
#X msg 169 296 obj 32 \$2 sample-item \$3 \$1;
#X msg 234 95 65;
#X obj 247 215 + 20;
#X msg 271 120 read banks/\$1/.samples cr \, rewind;
#X connect 0 0 7 0;
#X connect 0 1 1 1;
#X connect 1 0 0 0;
#X connect 3 0 8 1;
#X connect 3 0 12 0;
#X connect 4 0 5 0;
#X connect 5 0 1 0;
#X connect 5 1 11 0;
#X connect 5 1 6 0;
#X connect 5 1 9 0;
#X connect 5 2 8 2;
#X connect 6 0 13 0;
#X connect 7 0 8 0;
#X connect 7 1 3 0;
#X connect 8 0 10 0;
#X connect 9 0 2 0;
#X connect 10 0 2 0;
#X connect 11 0 3 1;
#X connect 12 0 3 1;
#X connect 13 0 0 0;
#X restore 20 134 pd manage-samsel;
#N canvas 545 551 506 430 command 0;
#X obj 10 233 s 1-play;
#X obj 35 210 s 2-play;
#X obj 60 187 s 3-play;
#X obj 85 165 s 4-play;
#X obj 110 142 s 5-play;
#X obj 135 120 s 6-play;
#X obj 160 98 s 7-play;
#X obj 185 76 s 8-play;
#X obj 10 29 pack f f;
#X obj 10 6 notein 1;
#X obj 10 52 route 28 29 30 31 32 33 34 35;
#X obj 14 338 textfile;
#X obj 14 290 sel 127;
#X msg 14 362 \; pd dsp 0 \; pd quit \;;
#X obj 14 266 ctlin 110 16;
#X msg 14 314 set syntest \, write /tmp/bullk.lock cr \, bang;
#X connect 8 0 10 0;
#X connect 9 0 8 0;
#X connect 9 1 8 1;
#X connect 10 0 0 0;
#X connect 10 1 1 0;
#X connect 10 2 2 0;
#X connect 10 3 3 0;
#X connect 10 4 4 0;
#X connect 10 5 5 0;
#X connect 10 6 6 0;
#X connect 10 7 7 0;
#X connect 11 0 13 0;
#X connect 12 0 15 0;
#X connect 14 0 12 0;
#X connect 15 0 11 0;
#X restore 151 100 pd command;
#X obj 30 55 bng 20 250 50 0 exit empty SAVE_&_EXIT 27 10 0 10 -1 -262144
-262144;
#N canvas 521 428 450 300 exit 0;
#X obj 17 13 r exit;
#X obj 77 74 s save;
#X obj 17 47 t b b b b;
#X msg 17 196 \; pd quit \;;
#X msg 57 153 \; pd-orgasample-stereo.pd menusave \;;
#X msg 57 100 \; pd-keys.pd menusave \; pd-controls.pd menusave \;
;
#X connect 0 0 2 0;
#X connect 2 0 3 0;
#X connect 2 2 5 0;
#X connect 2 3 1 0;
#X connect 5 0 4 0;
#X restore 234 100 pd exit;
#N canvas 206 224 450 300 doc 0;
#X obj 10 10 cnv 15 160 160 empty empty COULEURS 10 10 0 12 -233017
-13381 0;
#X text 15 33 -4033 vert flashy;
#X text 15 50 -2049 cadre element;
#X text 15 67 -13381 fond element;
#X text 15 84 -833 fond item;
#X text 15 101 -221145 view;
#X text 15 135 -241291 selected key;
#X text 15 118 -241291 played key;
#X restore 234 134 pd doc;
#X obj 300 131 soundfiler;
#X obj 300 159 s loaded;
#X obj 300 99 r sampleread;
#X obj 20 165 loadbang;
#X obj 20 194 s reinit;
#X connect 10 0 11 0;
#X connect 12 0 10 0;
#X connect 13 0 14 0;
#X coords 0 -1 1 1 360 64 2 20 20;
#X restore 218 24 pd controls;
#X coords 0 506 1 505 168 102 0;
