#N canvas 239 548 433 222 10;
#X obj 53 109 s \$1-rsample;
#X obj 21 59 symbol \$2;
#X obj 20 27 cnv 10 322 20 empty empty empty 20 12 0 14 -2049 -66577
0;
#X obj 21 28 cnv 15 320 18 empty empty \$2 30 10 0 10 -833 -262144
0;
#X obj 21 28 bng 18 250 50 0 empty empty empty 17 7 0 10 -1 -4033 -4033
;
#X obj 21 83 t b s;
#X msg 21 134 1;
#X obj 21 159 s \$1-play;
#X connect 1 0 5 0;
#X connect 4 0 1 0;
#X connect 5 1 0 0;
#X connect 6 0 7 0;
#X coords 0 -1 1 1 322 20 2 20 27;
