#N canvas 497 754 408 310 10;
#X floatatom 14 204 8 10 10000 1 attack #1-rattack #1-sattack, f 8
;
#X floatatom 14 232 8 10 10000 1 release #1-rrelease #1-srelease,
f 8;
#X obj 17 272 hsl 100 20 0 1 0 0 \$1-svolume \$1-rvolume volume -2
-8 0 10 -262144 -1 -1 4917 1;
#N canvas 408 287 413 441 engine 0;
#X obj 126 332 outlet~;
#X obj 127 272 *~;
#X msg 67 127 stop;
#X obj 67 99 delay;
#X msg 142 138 bang;
#X obj 127 301 hip~ 5;
#X obj 110 48 sel 0;
#N canvas 129 461 450 300 enveloppe 0;
#X obj 11 12 inlet;
#X obj 169 42 inlet;
#X obj 222 68 inlet;
#X obj 91 154 line~;
#X obj 11 103 pack f f;
#X obj 11 76 f;
#X obj 169 103 pack 0 f;
#X obj 91 189 outlet~;
#X text 58 13 ON;
#X text 213 43 OFF;
#X text 265 68 release time;
#X obj 29 46 r \$1-svolume;
#X obj 64 79 r \$1-sattack;
#X connect 0 0 5 0;
#X connect 1 0 6 0;
#X connect 2 0 6 1;
#X connect 3 0 7 0;
#X connect 4 0 3 0;
#X connect 5 0 4 0;
#X connect 6 0 3 0;
#X connect 11 0 5 1;
#X connect 12 0 4 1;
#X restore 211 209 pd enveloppe;
#X obj 110 17 r \$1-play;
#X obj 204 49 r \$1-srelease;
#X obj 67 209 tabplay~ \$1-array;
#X obj 23 259 s \$1-off;
#X obj 117 186 s \$1-on;
#X connect 1 0 5 0;
#X connect 2 0 10 0;
#X connect 2 0 11 0;
#X connect 3 0 2 0;
#X connect 4 0 7 0;
#X connect 4 0 10 0;
#X connect 4 0 12 0;
#X connect 5 0 0 0;
#X connect 6 0 3 0;
#X connect 6 0 7 1;
#X connect 6 1 4 0;
#X connect 7 0 1 1;
#X connect 8 0 6 0;
#X connect 9 0 3 1;
#X connect 9 0 7 2;
#X connect 10 0 1 0;
#X connect 10 1 11 0;
#X restore 161 23 pd engine;
#N canvas 126 490 450 300 init 0;
#X obj 30 11 r initsample;
#X obj 30 36 f \$1;
#X msg 30 62 \; \$1-rvolume 0.5 \; \$1-rattack 10 \; \$1-rrelease 10
\;;
#X connect 0 0 1 0;
#X connect 1 0 2 0;
#X restore 13 16 pd init;
#X symbolatom 14 173 30 0 0 0 - #1-rsample #1-ssample, f 30;
#N canvas 168 535 720 403 state 1;
#X obj 363 30 t b b b b b;
#X obj 324 142 symbol;
#X obj 417 126 10;
#X obj 509 110 10;
#X obj 610 93 0.5;
#X obj 346 265 s file;
#X obj 346 242 pack f s f f f;
#X obj 291 126 \$1;
#X obj 363 8 r savesample;
#X obj 17 99 pack s f;
#X msg 17 123 banks/\$2/\$1;
#X obj 70 77 r selectbank;
#X obj 17 33 route bang;
#X obj 17 7 r \$1-rsample;
#X obj 324 126 r \$1-ssample;
#X obj 417 110 r \$1-sattack;
#X obj 509 93 r \$1-srelease;
#X obj 610 76 r \$1-svolume;
#X obj 40 250 f \$1;
#X obj 17 341 s sampleread;
#X obj 17 146 t a b b;
#X obj 17 283 pack s f f;
#X obj 63 202 pow 2;
#X msg 17 310 read -maxsize \$3 -resize \$1 \$2-array;
#X obj 63 177 4000;
#X obj 133 140 print loading;
#X connect 0 0 7 0;
#X connect 0 1 1 0;
#X connect 0 2 2 0;
#X connect 0 3 3 0;
#X connect 0 4 4 0;
#X connect 1 0 6 1;
#X connect 2 0 6 2;
#X connect 3 0 6 3;
#X connect 4 0 6 4;
#X connect 6 0 5 0;
#X connect 7 0 6 0;
#X connect 8 0 0 0;
#X connect 9 0 10 0;
#X connect 10 0 20 0;
#X connect 10 0 25 0;
#X connect 11 0 9 1;
#X connect 12 1 9 0;
#X connect 13 0 12 0;
#X connect 14 0 1 1;
#X connect 15 0 2 1;
#X connect 16 0 3 1;
#X connect 17 0 4 1;
#X connect 18 0 21 1;
#X connect 20 0 21 0;
#X connect 20 1 18 0;
#X connect 20 2 24 0;
#X connect 21 0 23 0;
#X connect 22 0 21 2;
#X connect 23 0 19 0;
#X connect 24 0 22 0;
#X restore 13 43 pd state;
#N canvas 23 683 407 354 GUI 0;
#X obj 27 19 r \$1-on;
#X obj 162 19 r unselect;
#X obj 90 19 r \$1-off;
#X obj 266 155 s samsel;
#N canvas 152 465 450 300 to-panel 0;
#X obj 8 33 s panel-sample;
#X obj 8 9 r \$1-ssample;
#X obj 158 8 inlet;
#X obj 8 60 r \$1-sattack;
#X obj 8 111 r \$1-srelease;
#X obj 8 163 r \$1-svolume;
#X obj 8 84 value attack;
#X obj 8 135 value release;
#X obj 8 187 value volume;
#X obj 158 187 s panelize;
#X obj 216 78 s \$1-rsample;
#X obj 208 105 s \$1-rattack;
#X obj 199 133 s \$1-rrelease;
#X obj 190 159 s \$1-rvolume;
#X obj 158 36 t b b;
#X obj 158 78 f \$1;
#X connect 1 0 0 0;
#X connect 2 0 14 0;
#X connect 3 0 6 0;
#X connect 4 0 7 0;
#X connect 5 0 8 0;
#X connect 14 0 15 0;
#X connect 14 1 10 0;
#X connect 14 1 11 0;
#X connect 14 1 12 0;
#X connect 14 1 13 0;
#X connect 15 0 9 0;
#X restore 286 102 pd to-panel;
#X obj 266 130 f \$1;
#X obj 306 71 s unselect;
#X obj 246 19 r \$1-select;
#X obj 246 45 t b b b b;
#X msg 90 58 0;
#X msg 27 58 1;
#X msg 162 58 0;
#X msg 182 109 2;
#N canvas 931 762 450 300 light 0;
#X obj 12 13 inlet;
#X obj 129 13 inlet;
#X obj 116 268 s key-\$1;
#X msg 116 242 color \$1 \$1;
#X msg 101 185 15;
#N canvas 435 477 397 288 colinit 0;
#X obj 14 15 inlet;
#X obj 57 197 outlet;
#X obj 75 15 loadbang;
#X obj 75 58 f \$1;
#X obj 75 91 sel 3 5 7;
#X msg 75 125 -1;
#X obj 57 164 f;
#X msg 120 125 -1.65798e+07;
#X connect 0 0 6 0;
#X connect 2 0 3 0;
#X connect 3 0 4 0;
#X connect 4 0 5 0;
#X connect 4 1 5 0;
#X connect 4 2 5 0;
#X connect 4 3 7 0;
#X connect 5 0 6 1;
#X connect 6 0 1 0;
#X connect 7 0 6 1;
#X restore 15 185 pd colinit;
#X obj 68 81 f;
#X obj 82 107 +;
#X obj 68 57 t b f;
#X obj 82 133 sel 0 1 2 3;
#X msg 140 185 -32769;
#X msg 208 185 -65281;
#X connect 0 0 6 0;
#X connect 1 0 8 0;
#X connect 3 0 2 0;
#X connect 4 0 3 0;
#X connect 5 0 3 0;
#X connect 6 0 7 0;
#X connect 7 0 9 0;
#X connect 8 0 6 0;
#X connect 8 1 7 1;
#X connect 9 0 5 0;
#X connect 9 1 4 0;
#X connect 9 2 10 0;
#X connect 9 3 11 0;
#X connect 10 0 3 0;
#X connect 11 0 3 0;
#X restore 99 156 pd light;
#X connect 0 0 10 0;
#X connect 1 0 11 0;
#X connect 2 0 9 0;
#X connect 5 0 3 0;
#X connect 7 0 8 0;
#X connect 8 0 12 0;
#X connect 8 1 5 0;
#X connect 8 2 4 0;
#X connect 8 3 6 0;
#X connect 9 0 13 0;
#X connect 10 0 13 0;
#X connect 11 0 13 1;
#X connect 12 0 13 1;
#X restore 13 70 pd GUI;
#X obj 13 98 table \$1-array;
#X obj 149 75 dac~;
#X connect 3 0 9 0;
#X connect 3 0 9 1;
#X coords 0 310 1 309 100 20 0;
