#N canvas 565 176 399 295 10;
#X obj 13 15 loadbang;
#X obj 13 70 \$0;
#X obj 13 40 t b b;
#X obj 66 70 \$1;
#X obj 13 94 pack f f;
#X obj 13 124 print;
#X obj 151 49 sample-item 1005 BarkSnarl.wav;
#X connect 0 0 2 0;
#X connect 1 0 4 0;
#X connect 2 0 1 0;
#X connect 2 1 3 0;
#X connect 3 0 4 1;
#X connect 4 0 5 0;
